<svg width="725" height="708" viewBox="0 0 725 708" fill="none" xmlns="http://www.w3.org/2000/svg">
<path d="M652.107 365.585C653.984 365.616 656.055 365.55 657.438 364.225C659.088 362.645 659.074 359.972 658.938 357.637C658.37 347.928 657.802 338.219 657.235 328.51C657.065 325.616 656.753 322.4 654.669 320.483C655.073 331.139 655.477 341.795 655.88 352.45C655.949 354.256 655.956 356.254 654.823 357.618C653.351 359.389 650.732 359.247 648.496 359.028C642.752 358.467 636.967 358.378 631.21 358.757C628.129 358.959 617.154 358.804 615.645 361.564C619.742 364.331 628.731 363.99 633.66 364.491C639.791 365.115 645.947 365.481 652.107 365.585Z" fill="#1B1B1B"/>
<path d="M616.143 362.303C615.67 362.303 615.215 362.118 614.875 361.787C614.529 361.449 614.331 360.987 614.326 360.502L613.994 322.03C613.986 321.027 614.791 320.207 615.795 320.198L623.519 320.131C623.523 320.131 623.529 320.131 623.534 320.131C624.53 320.131 625.342 320.934 625.35 321.931C625.358 322.934 624.553 323.755 623.55 323.763L617.642 323.815L617.943 358.638L653.03 358.032L652.732 323.511L632.754 323.684C631.764 323.694 630.931 322.886 630.922 321.883C630.914 320.881 631.719 320.06 632.723 320.052L654.518 319.864C654.522 319.864 654.528 319.864 654.533 319.864C655.009 319.864 655.466 320.051 655.806 320.385C656.149 320.722 656.344 321.182 656.349 321.664L656.678 359.801C656.686 360.798 655.89 361.614 654.893 361.632L616.174 362.303C616.164 362.303 616.153 362.303 616.143 362.303Z" fill="#FF971D"/>
<path d="M640.153 350.156C639.581 350.156 639.019 349.886 638.667 349.385L630.644 337.986C630.067 337.166 630.263 336.033 631.083 335.456C631.904 334.879 633.035 335.075 633.613 335.896L640.641 345.879L671.46 326.333C672.306 325.798 673.43 326.046 673.967 326.894C674.503 327.741 674.253 328.864 673.406 329.4L641.125 349.873C640.823 350.065 640.486 350.156 640.153 350.156Z" fill="#FF971D"/>
<path d="M585.411 406.978C508.803 401.291 431.344 395.443 358.225 371.889C436.771 384.909 505.937 394.756 584.484 407.776L585.411 406.978Z" fill="#1B1B1B"/>
<path d="M445.129 309.96C450.849 307.457 456.568 304.955 462.288 302.452C461.755 309.091 462.685 315.497 462.842 322.065C460.414 321.561 458.104 315.933 455.772 314.06C453.751 312.437 447.933 308.733 445.129 309.96Z" fill="#1B1B1B"/>
<path d="M549.98 366.345C549.93 366.345 549.881 366.343 549.83 366.339C536.507 365.255 421.044 353.408 402.836 347.029C402.325 346.85 401.921 346.452 401.733 345.944C401.546 345.437 401.595 344.872 401.867 344.404C406.527 336.373 409.603 333.564 418.732 325.224L421.344 322.836C422.084 322.158 423.232 322.209 423.91 322.947C424.588 323.687 424.537 324.835 423.798 325.513L421.182 327.905C412.959 335.417 409.948 338.168 406.186 344.256C428.859 350.427 532.086 361.251 550.126 362.719C551.125 362.8 551.87 363.676 551.788 364.676C551.711 365.626 550.916 366.345 549.98 366.345Z" fill="#FF971D"/>
<path d="M428.687 321.527C428.074 320.734 428.221 319.593 429.014 318.979C438.098 311.965 448.355 306.247 459.5 301.985C460.439 301.628 461.488 302.096 461.846 303.032C462.204 303.97 461.735 305.02 460.798 305.378C449.983 309.513 440.037 315.056 431.235 321.855C430.438 322.47 429.298 322.317 428.687 321.527Z" fill="#FF971D"/>
<path d="M550.645 366.345C549.754 366.345 548.976 365.689 548.849 364.779C546.567 348.442 541.781 335.917 539.829 331.29C537.547 325.883 536.902 324.898 532.923 320.75C528.568 316.215 521.626 313.302 514.915 310.484C509.576 308.244 504.057 305.928 499.611 302.743C498.199 301.733 496.225 301.822 494.808 302.957C490.604 306.33 486.047 309.752 481.64 313.063C475.972 317.319 470.111 321.72 464.993 326.026C464.461 326.475 463.717 326.577 463.085 326.295C462.45 326.013 462.031 325.392 462.009 324.697C461.896 321.344 461.423 317.717 460.966 314.21C460.507 310.692 460.032 307.056 459.904 303.604C459.897 303.512 459.894 303.417 459.895 303.331C459.918 302.344 460.727 301.559 461.71 301.559C461.725 301.559 461.739 301.559 461.755 301.559C462.725 301.583 463.5 302.364 463.526 303.324C463.534 303.418 463.536 303.504 463.535 303.581C463.656 306.752 464.119 310.304 464.567 313.739C464.879 316.127 465.197 318.568 465.41 320.972C469.886 317.346 474.739 313.702 479.458 310.158C483.842 306.865 488.376 303.461 492.536 300.124C495.216 297.972 498.994 297.833 501.725 299.789C505.84 302.737 511.168 304.972 516.32 307.135C523.373 310.095 530.666 313.157 535.545 318.235C539.853 322.728 540.709 324.033 543.175 329.879C545.183 334.637 550.105 347.515 552.446 364.278C552.585 365.271 551.892 366.189 550.898 366.327C550.813 366.339 550.729 366.345 550.645 366.345Z" fill="#FF971D"/>
<path d="M461.703 305.558C461.649 305.558 461.594 305.555 461.54 305.551C460.541 305.462 459.803 304.58 459.892 303.581L461.08 290.251C461.169 289.25 462.067 288.504 463.05 288.602C464.049 288.691 464.787 289.573 464.698 290.572L463.51 303.903C463.426 304.847 462.632 305.558 461.703 305.558Z" fill="#FF971D"/>
<path d="M496.608 290.901C495.607 290.834 494.85 289.969 494.915 288.969C495.439 281.009 494.798 281.696 493.153 273.364C492.987 272.528 493.426 271.689 494.208 271.348C496.19 270.48 497.103 268.711 498.27 266.698C499.684 264.27 499.809 261.428 498.598 259.281C497.263 256.919 494.097 255.445 491.666 256.07C489.562 256.607 488.323 259.174 489.631 260.783C490.265 261.561 490.146 262.704 489.369 263.336C488.591 263.969 487.446 263.854 486.815 263.074C483.789 259.359 486.144 253.733 490.765 252.551C494.79 251.524 499.613 253.695 501.76 257.496C503.605 260.761 503.47 264.988 501.408 268.525C500.165 270.67 499.087 272.604 496.981 273.968C498.428 280.9 499.069 281.153 498.54 289.208C498.475 290.185 497.64 290.961 496.608 290.901Z" fill="#FF971D"/>
<path d="M459.379 292.393C455.74 292.394 452.138 291.254 449.453 288.924C445.642 285.613 444.303 280.816 443.497 276.558C440.908 262.894 440.811 252.412 443.172 241.505C443.385 240.526 444.343 239.901 445.331 240.115C446.311 240.327 446.934 241.294 446.721 242.274C444.47 252.674 444.573 262.726 447.065 275.882C447.791 279.71 448.871 283.607 451.835 286.181C456.176 289.95 464.384 289.436 468.404 285.143C469.089 284.41 470.237 284.372 470.97 285.059C471.702 285.744 471.74 286.893 471.054 287.626C468.108 290.774 463.717 292.393 459.379 292.393Z" fill="#FF971D"/>
<path d="M483.936 225.815L484.119 218.484C484.145 217.483 484.925 216.703 485.981 216.715C486.984 216.741 487.776 217.574 487.751 218.577L487.646 222.754C489.13 222.056 491.002 221.352 492.949 221.057C493.928 220.9 494.865 221.591 495.015 222.582C495.164 223.574 494.482 224.499 493.49 224.649C491.082 225.012 488.422 226.302 486.734 227.388C485.51 228.175 483.9 227.271 483.936 225.815Z" fill="#FF971D"/>
<path d="M455.758 275.352C454.688 275.352 453.611 275.005 452.842 274.372C451.119 272.956 450.971 270.825 450.9 269.801C450.623 265.859 450.839 261.885 451.537 257.988C451.716 256.999 452.662 256.351 453.645 256.52C454.633 256.698 455.29 257.641 455.113 258.628C454.466 262.231 454.267 265.904 454.523 269.549C454.591 270.534 454.72 271.214 455.149 271.568C455.291 271.685 455.702 271.749 455.953 271.707C456.379 270.96 457.292 270.602 458.131 270.896C459.078 271.228 459.575 272.265 459.243 273.211C458.908 274.162 458.092 274.881 457.002 275.185C456.601 275.298 456.18 275.352 455.758 275.352Z" fill="#FF971D"/>
<path d="M456.824 282.223C456.584 282.223 456.344 282.213 456.106 282.193C455.105 282.108 454.364 281.23 454.448 280.229C454.532 279.229 455.396 278.491 456.412 278.573C457.706 278.692 459.079 278.256 460.082 277.432C460.857 276.795 462.002 276.907 462.638 277.683C463.274 278.458 463.162 279.603 462.387 280.239C460.829 281.518 458.835 282.223 456.824 282.223Z" fill="#FF971D"/>
<path d="M508.193 335.355C508.139 335.355 508.085 335.353 508.03 335.348C507.031 335.26 506.293 334.378 506.382 333.379L507.57 320.048C507.659 319.048 508.556 318.315 509.54 318.4C510.539 318.489 511.277 319.371 511.188 320.37L510 333.7C509.916 334.645 509.123 335.355 508.193 335.355Z" fill="#FF971D"/>
<path d="M473.697 333.327C473.354 333.327 473.01 333.286 472.668 333.204C471.693 332.967 471.094 331.985 471.331 331.01C471.569 330.035 472.555 329.44 473.524 329.673C474.28 329.859 475.314 328.753 475.961 327.654L476.252 327.151C477.205 325.496 478.39 323.436 480.698 322.737C481.349 322.54 481.962 322.495 482.504 322.456C482.777 322.438 483.051 322.422 483.32 322.371C484.222 322.203 485.185 321.533 486.183 320.382C487.025 319.41 487.749 318.321 488.515 317.168C489.055 316.356 489.613 315.515 490.227 314.703C492.233 312.044 494.355 310.438 496.716 309.793C497.687 309.528 498.683 310.099 498.947 311.066C499.211 312.034 498.641 313.032 497.674 313.297C496.117 313.722 494.63 314.897 493.126 316.89C492.578 317.616 492.073 318.375 491.54 319.179C490.744 320.376 489.923 321.614 488.928 322.76C487.357 324.574 485.741 325.615 483.986 325.942C483.584 326.017 483.174 326.051 482.764 326.08C482.377 326.108 482.012 326.134 481.749 326.213C480.82 326.494 480.099 327.75 479.4 328.963L479.092 329.495C477.645 331.956 475.684 333.327 473.697 333.327Z" fill="#FF971D"/>
<path d="M587.053 407.927C586.962 407.927 586.87 407.919 586.778 407.905L360.548 373.241C359.666 373.107 359.014 372.351 359.008 371.458L358.166 240.302C358.16 239.299 358.968 238.48 359.97 238.474C359.974 238.474 359.979 238.474 359.982 238.474C360.98 238.474 361.792 239.279 361.798 240.278L362.63 369.886L585.223 403.993L584.353 270.026C584.347 269.024 585.155 268.205 586.157 268.198C586.161 268.198 586.166 268.198 586.169 268.198C587.167 268.198 587.978 269.003 587.985 270.002L588.87 406.099C588.876 407.11 588.056 407.927 587.053 407.927Z" fill="#FF971D"/>
<path d="M586.05 252.388C585.059 252.388 584.249 251.594 584.234 250.601L583.774 221.041C583.758 220.038 584.559 219.212 585.561 219.196C585.571 219.196 585.58 219.196 585.59 219.196C586.581 219.196 587.39 219.991 587.406 220.984L587.866 250.544C587.881 251.547 587.081 252.373 586.078 252.388C586.068 252.388 586.059 252.388 586.05 252.388Z" fill="#FF971D"/>
<path d="M580.523 161.666C580.053 161.666 579.582 161.489 579.227 161.134C578.518 160.425 578.518 159.276 579.227 158.566C579.534 158.26 579.923 158.086 580.323 158.044L581.138 157.907C581.14 157.907 581.141 157.907 581.144 157.905C582.362 157.683 583.328 158.569 583.328 159.685C583.328 160.591 582.666 161.341 581.799 161.478C581.78 161.482 581.761 161.485 581.741 161.488V161.489L580.837 161.642V161.64C580.734 161.658 580.628 161.666 580.523 161.666Z" fill="#FF971D"/>
<path d="M359.91 231.128C358.912 231.128 358.1 230.323 358.094 229.324L357.881 196.187C357.875 195.295 358.518 194.531 359.399 194.384L525.721 166.694C526.701 166.528 527.645 167.197 527.81 168.188C527.974 169.177 527.306 170.113 526.317 170.277L361.522 197.712L361.726 229.3C361.732 230.302 360.924 231.122 359.921 231.128C359.917 231.128 359.913 231.128 359.91 231.128Z" fill="#FF971D"/>
<path d="M411.564 204.834C413.842 204.809 415.667 202.891 415.641 200.552C415.615 198.212 413.747 196.336 411.469 196.362C409.191 196.387 407.365 198.305 407.391 200.644C407.417 202.984 409.285 204.86 411.564 204.834Z" fill="#FF971D"/>
<path d="M405.584 200.686C405.545 197.377 408.14 194.607 411.456 194.568C414.876 194.568 417.43 197.324 417.465 200.554C417.502 203.89 414.868 206.635 411.593 206.673C408.167 206.673 405.62 203.911 405.584 200.686ZM411.521 198.2C411.512 198.2 411.505 198.2 411.497 198.2C410.218 198.215 409.2 199.315 409.216 200.645V200.646C409.231 201.981 410.301 203.039 411.551 203.041C412.825 203.027 413.849 201.929 413.833 200.594C413.819 199.268 412.783 198.2 411.521 198.2Z" fill="#FF971D"/>
<path d="M431.151 201.715C433.429 201.69 435.255 199.772 435.229 197.433C435.203 195.093 433.335 193.217 431.056 193.243C428.778 193.268 426.953 195.186 426.979 197.525C427.005 199.865 428.873 201.741 431.151 201.715Z" fill="#FF971D"/>
<path d="M425.172 197.568C425.113 192.151 431.538 189.431 435.283 193.193C439.071 196.996 436.402 203.496 431.181 203.554C429.474 203.554 425.208 200.787 425.172 197.568ZM431.112 195.082C431.104 195.082 431.096 195.082 431.087 195.082C429.016 195.106 428.033 197.757 429.517 199.249C430.994 200.73 433.446 199.61 433.423 197.476C433.415 196.82 433.162 196.21 432.71 195.755C432.277 195.321 431.71 195.082 431.112 195.082Z" fill="#FF971D"/>
<path d="M391.755 208.637C394.033 208.611 395.859 206.694 395.832 204.354C395.806 202.015 393.938 200.139 391.66 200.164C389.382 200.19 387.556 202.107 387.583 204.447C387.609 206.786 389.477 208.662 391.755 208.637Z" fill="#FF971D"/>
<path d="M385.78 204.477C385.743 201.122 388.41 198.357 391.717 198.357C394.965 198.357 397.625 201.029 397.662 204.344C397.699 207.681 395.064 210.425 391.789 210.463C388.369 210.462 385.815 207.706 385.78 204.477ZM391.717 201.989C391.709 201.989 391.702 201.989 391.694 201.989C390.42 202.003 389.396 203.102 389.412 204.436C389.426 205.77 390.51 206.852 391.748 206.83C393.021 206.816 394.045 205.719 394.03 204.384C394.016 203.058 392.98 201.989 391.717 201.989Z" fill="#FF971D"/>
<path d="M372.984 267.537C371.99 267.537 371.18 266.738 371.168 265.741C371.157 264.739 371.961 263.917 372.964 263.905L415.237 263.432C415.245 263.432 415.252 263.432 415.257 263.432C416.252 263.432 417.062 264.231 417.073 265.228C417.084 266.231 416.28 267.052 415.277 267.064L373.004 267.537C372.997 267.537 372.99 267.537 372.984 267.537Z" fill="#FF971D"/>
<path d="M373.793 288.267C372.798 288.267 371.988 287.467 371.977 286.471C371.966 285.468 372.77 284.646 373.773 284.634L409.451 284.235C409.458 284.235 409.465 284.235 409.471 284.235C410.465 284.235 411.275 285.034 411.287 286.031C411.298 287.033 410.494 287.855 409.491 287.867L373.813 288.267C373.806 288.267 373.799 288.267 373.793 288.267Z" fill="#FF971D"/>
<path d="M382.92 308.234C381.925 308.234 381.115 307.435 381.104 306.439C381.093 305.436 381.897 304.614 382.9 304.602L394.959 304.468C394.966 304.468 394.973 304.468 394.979 304.468C395.973 304.468 396.783 305.267 396.795 306.264C396.806 307.266 396.002 308.088 394.999 308.1L382.94 308.234C382.932 308.234 382.925 308.234 382.92 308.234Z" fill="#FF971D"/>
<path d="M479.462 206.136C478.504 206.136 477.704 205.388 477.649 204.421C477.595 203.42 478.361 202.562 479.362 202.507L482.62 202.327C506.046 201.036 506.046 201.036 523.642 198.765C526.802 198.357 530.527 197.877 535.053 197.302C536.048 197.184 536.956 197.882 537.083 198.876C537.209 199.87 536.505 200.78 535.509 200.906C530.987 201.48 527.265 201.959 524.108 202.367C506.378 204.656 506.378 204.656 482.82 205.955L479.563 206.134C479.529 206.135 479.495 206.136 479.462 206.136Z" fill="#FF971D"/>
<path d="M568.309 202.301C567.799 202.301 567.3 202.085 566.95 201.689C558.166 191.763 549.442 181.955 540.719 172.145C531.994 162.334 523.269 152.524 514.484 142.596C514.096 142.158 513.943 141.561 514.072 140.992C514.201 140.423 514.595 139.95 515.133 139.72C536.735 130.537 559.581 125.534 583.04 124.851C583.497 124.816 583.932 124.992 584.276 125.288C602.184 140.674 621.08 157.222 637.961 175.445C638.381 175.899 638.542 176.534 638.387 177.132C638.233 177.73 637.785 178.209 637.199 178.403C625.767 182.182 614.24 186.303 603.091 190.289C591.915 194.284 580.36 198.416 568.879 202.209C568.692 202.272 568.5 202.301 568.309 202.301ZM518.887 142.09C527.102 151.368 535.267 160.55 543.434 169.732C551.895 179.247 560.358 188.762 568.876 198.384C579.941 194.708 591.082 190.725 601.868 186.868C612.165 183.188 622.784 179.392 633.369 175.849C617.279 158.753 599.432 143.105 582.444 128.503C560.529 129.224 539.162 133.792 518.887 142.09Z" fill="#FF971D"/>
<path d="M609.61 188.646C607.078 193.784 604.07 199.982 602.211 205.4C588.724 211.998 572.26 211.337 558.643 205.013C545.026 198.689 529.525 187.58 526.769 172.821C526.492 171.335 526.188 169.313 525.91 167.828C527.834 165.637 529.758 163.446 531.681 161.256C543.558 174.575 556.049 187.711 567.927 201.03C580.976 195.161 595.525 191.165 609.61 188.646Z" fill="#FF971D"/>
<path d="M581.341 211.895C573.451 211.895 565.387 210.148 557.877 206.66C549.108 202.587 528.348 191.17 524.984 173.155C524.844 172.402 524.696 171.511 524.548 170.621C524.405 169.757 524.262 168.894 524.125 168.161C524.022 167.613 524.178 167.048 524.546 166.63L530.317 160.057C530.659 159.667 531.154 159.442 531.674 159.44C531.676 159.44 531.679 159.44 531.681 159.44C532.199 159.44 532.692 159.661 533.036 160.048C538.957 166.686 545.137 173.395 551.113 179.883C556.82 186.08 562.713 192.477 568.399 198.833C580.329 193.606 594.078 189.578 609.29 186.858C609.963 186.741 610.648 187.007 611.06 187.554C611.472 188.101 611.541 188.834 611.238 189.448C608.514 194.977 605.707 200.807 603.928 205.99C603.772 206.445 603.441 206.82 603.008 207.031C596.378 210.276 588.94 211.895 581.341 211.895ZM527.853 168.368C527.944 168.898 528.038 169.463 528.132 170.028C528.275 170.892 528.418 171.755 528.555 172.488C531.609 188.843 551.148 199.531 559.407 203.366C572.922 209.642 588.314 209.9 600.745 204.088C602.227 199.933 604.272 195.471 606.39 191.095C592.364 193.837 579.69 197.73 568.671 202.686C567.947 203.009 567.097 202.831 566.571 202.238C560.633 195.58 554.436 188.851 548.441 182.344C542.913 176.342 537.212 170.153 531.693 163.994L527.853 168.368Z" fill="#FF971D"/>
<path d="M580.747 152.384C582.035 152.441 582.22 153.689 583.395 154.22C584.432 154.689 584.471 156.267 584.101 157.344C583.318 159.621 580.115 160.627 578.171 159.207C576.226 157.786 576.211 154.429 578.142 152.991" fill="#FF971D"/>
<path d="M580.288 161.677C579.124 161.678 578.005 161.335 577.099 160.674C575.722 159.667 574.895 157.962 574.887 156.113C574.879 154.264 575.689 152.553 577.057 151.535C577.684 151.067 578.518 151.067 579.136 151.471C579.474 150.903 580.131 150.537 580.827 150.569C582.326 150.636 583.133 151.54 583.617 152.08C583.853 152.346 583.995 152.499 584.142 152.565C586.142 153.471 586.499 155.951 585.818 157.934C585.264 159.547 583.879 160.84 582.116 161.395C581.511 161.585 580.894 161.677 580.288 161.677ZM579.715 153.899C579.596 154.107 579.432 154.296 579.226 154.448C578.78 154.781 578.517 155.397 578.519 156.097C578.522 156.798 578.792 157.412 579.242 157.741C579.689 158.069 580.354 158.142 581.028 157.929C581.696 157.72 582.202 157.28 582.383 156.754C582.514 156.373 582.514 155.983 582.475 155.793C581.722 155.411 581.256 154.89 580.908 154.502C580.798 154.378 580.646 154.207 580.584 154.166C580.262 154.152 579.966 154.056 579.715 153.899Z" fill="#FF971D"/>
<path d="M607.604 236.964C606.615 236.8 605.945 235.869 606.111 234.88C608.022 223.428 609.995 211.596 611.359 199.906C611.835 195.835 612.147 192.188 611.152 188.78C609.218 182.162 602.596 177.804 597.042 174.746C596.188 174.276 595.325 173.813 594.461 173.35C588.955 170.398 583.269 167.351 579.431 162.171C578.831 161.876 578.418 161.257 578.418 160.542C578.418 159.539 579.231 158.726 580.234 158.726L580.472 158.724C581.094 158.762 581.646 159.009 581.991 159.508C585.325 164.333 590.596 167.157 596.176 170.148C597.052 170.619 597.927 171.087 598.794 171.564C604.959 174.959 612.332 179.868 614.638 187.761C615.823 191.818 615.47 196.02 614.968 200.327C613.593 212.106 611.611 223.981 609.696 235.466C609.531 236.447 608.605 237.129 607.604 236.964Z" fill="#FF971D"/>
<path d="M601.21 242.62C600.298 243.717 599.339 244.92 599.123 246.468C598.906 248.017 599.863 249.891 601.13 249.69C602.063 249.542 602.652 248.438 603.243 247.54C603.835 246.642 604.829 245.809 605.651 246.376C606.858 247.208 606.192 249.729 607.015 251.234C607.415 251.966 608.293 252.386 608.867 251.862C609.741 251.064 609.209 248.955 610.17 248.325C610.738 247.952 611.448 248.418 611.864 249.026C612.281 249.634 612.555 250.395 613.055 250.899C614.225 252.08 616.336 250.876 616.353 249.017C616.894 249.915 617.809 250.917 618.574 250.322C619.001 249.99 619.126 249.259 618.989 248.659C618.598 246.943 615.504 244.385 613.583 242.114C612.122 240.386 611.487 238.055 610.198 236.347C607.059 232.185 603.457 239.917 601.21 242.62Z" fill="#FF971D"/>
<path d="M605.422 252.107C604.818 251 604.766 249.835 604.67 248.678C603.843 249.969 603.016 251.229 601.416 251.484C598.758 251.893 596.951 248.888 597.324 246.217C597.621 244.097 598.94 242.509 599.814 241.459C601.722 239.161 604.376 233.428 608.126 233.326C610.842 233.285 612.151 235.783 613.336 238.181C614.45 240.431 614.633 240.695 616.91 243.023C617.81 243.946 618.742 244.9 619.598 246.005C620.052 246.589 620.546 247.316 620.76 248.257C621.365 250.907 619.189 253.132 616.88 252.038C615.418 253.468 613.183 253.607 611.765 252.177C611.498 251.908 611.287 251.621 611.106 251.336C610.331 254.65 606.794 254.612 605.422 252.107ZM613.362 248C613.72 248.521 614.039 249.214 614.255 249.511C614.373 249.436 614.535 249.262 614.537 249C614.545 248.23 615.039 247.494 615.915 247.255C614.723 245.913 613.443 244.76 612.196 243.287C610.476 241.252 609.948 239.029 608.749 237.44C608.446 237.04 608.252 236.957 608.225 236.957C606.942 236.992 603.988 242.119 602.607 243.781C601.708 244.862 600.544 246.272 601.032 247.591C601.206 247.353 601.392 247.061 601.726 246.542C603.959 243.147 607.694 243.852 608.233 247.832C608.445 247.446 608.743 247.089 609.171 246.808C610.605 245.869 612.351 246.523 613.362 248Z" fill="#FF971D"/>
<path d="M483.272 223.862C477.873 222.45 470.267 225.697 467.228 222.32C462.713 217.323 457.489 212.475 449.906 210.841C442.038 209.154 433.804 211.646 428.931 217.19C423.549 223.325 423.058 232.847 427.815 238.867C430.808 242.659 435.623 244.787 440.069 244.703C443.88 244.652 447.669 243.069 450.452 240.454C451.866 241.814 453.811 243.056 454.442 243.232C458.67 244.433 458.926 244.157 461.218 244.15C465.86 244.127 470.811 244.307 475.947 243.725C476.891 250.618 481.675 257.969 486.463 262.99C487.729 264.316 489.979 263.118 489.543 261.31C489.199 259.884 489.989 257.826 491.269 256.816C492.509 255.834 494.389 255.626 495.744 256.316C496.779 256.843 498.042 256.277 498.33 255.145C499.007 252.473 499.71 249.711 500.05 246.844C501.529 234.706 494.896 226.917 483.272 223.862ZM443.121 223.813C439.523 223.882 436.078 226.406 434.927 229.815C434.709 230.463 434.008 230.785 433.394 230.575C432.76 230.362 432.42 229.675 432.634 229.041C434.099 224.696 438.491 221.479 443.076 221.392C443.761 221.369 444.296 221.912 444.309 222.58C444.322 223.248 443.79 223.8 443.121 223.813Z" fill="#FF971D"/>
<path d="M494.012 512.374C503.203 511.651 512.713 511.745 522.395 512.679C531.971 513.604 541.405 513.995 551.615 515.422C551.552 514.246 551.489 513.069 551.426 511.893C545.095 510.991 538.835 510.206 532.714 509.229C527.214 508.351 521.696 508.211 516.26 508.054C505.003 507.728 494.061 507.9 483.468 508.549C480.323 508.742 477.668 507.996 474.732 507.664C475.994 514.583 489.384 512.737 494.012 512.374Z" fill="#1B1B1B"/>
<path d="M564 515.417C570.936 516.479 578.042 517.229 585.283 517.654C589.542 517.904 594.094 517.996 597.826 516.205C601.59 514.398 603.957 510.017 601.649 506.773C602.131 509.692 599.717 512.451 596.678 513.724C593.66 514.988 590.163 515.078 586.813 515.019C577.622 514.857 572.001 513.957 563.354 511.948" fill="#1B1B1B"/>
<path d="M602.447 475.504C601.444 475.478 600.653 474.643 600.68 473.64L601.367 447.822C601.477 443.62 597.137 441.003 592.72 441.475C562.306 444.724 536.716 446.464 514.488 446.796C514.479 446.796 514.469 446.796 514.461 446.796C513.47 446.796 512.66 446 512.645 445.007C512.631 444.005 513.431 443.179 514.434 443.164C536.551 442.834 562.032 441.1 592.333 437.864C599.6 437.084 605.155 442.029 604.997 447.919L604.31 473.737C604.282 474.801 603.345 475.568 602.447 475.504Z" fill="#FF971D"/>
<path d="M550.614 512.898C542.744 512.006 535.274 511.826 522.911 511.209C505.792 510.359 499.566 510.538 499.687 510.54C498.688 510.54 497.876 509.733 497.871 508.732C497.866 507.729 498.676 506.913 499.679 506.908C505.062 506.886 511.109 506.887 532.333 508.023C538.454 508.297 544.783 508.581 551.023 509.289C552.02 509.402 552.736 510.301 552.623 511.298C552.507 512.311 551.587 513.013 550.614 512.898Z" fill="#FF971D"/>
<path d="M469.658 501.432L470.976 451.925C471.043 449.364 472.197 446.872 474.14 445.089C476.087 443.301 478.679 442.361 481.254 442.512C490.154 443.04 495.181 443.073 504.504 443.034C504.506 443.034 504.51 443.034 504.512 443.034C505.511 443.034 506.324 443.841 506.328 444.842C506.333 445.844 505.523 446.661 504.52 446.666C495.109 446.703 490.043 446.67 481.04 446.137C479.451 446.044 477.823 446.636 476.597 447.763C475.374 448.886 474.648 450.439 474.606 452.022L473.287 501.528C473.2 504.829 475.985 507.495 479.281 507.379C485.75 507.16 491.083 507.124 490.779 507.124C491.772 507.124 492.583 507.924 492.594 508.919C492.606 509.922 491.802 510.745 490.8 510.756C486.742 510.804 483.015 510.886 479.405 511.008C474.07 511.184 469.513 506.882 469.658 501.432Z" fill="#FF971D"/>
<path d="M591.887 516.565C589.713 516.565 579.995 515.168 563.43 513.775C562.431 513.69 561.688 512.811 561.772 511.812C561.857 510.812 562.757 510.09 563.735 510.155C572.998 510.935 581.65 511.877 590.811 512.875C595.884 513.425 599.708 510.171 599.806 506.518L600.899 483.186C600.945 482.185 601.745 481.395 602.798 481.458C603.799 481.504 604.574 482.355 604.527 483.356L603.434 506.651C603.285 512.279 598.071 516.565 591.887 516.565Z" fill="#FF971D"/>
<path d="M492.378 462.578L482.932 462.716L483.154 454.379L492.603 454.136L492.378 462.578Z" fill="#FF971D"/>
<path d="M482.931 464.532C482.446 464.532 481.98 464.338 481.639 463.993C481.291 463.64 481.102 463.162 481.116 462.667L481.338 454.331C481.363 453.365 482.141 452.589 483.106 452.565L492.555 452.321C493.101 452.27 493.534 452.501 493.887 452.852C494.238 453.204 494.431 453.687 494.417 454.184L494.192 462.627C494.167 463.6 493.378 464.38 492.403 464.395L482.957 464.532C482.948 464.532 482.939 464.532 482.931 464.532ZM484.923 456.15L484.797 460.872L490.609 460.789L490.735 456L484.923 456.15Z" fill="#FF971D"/>
<path d="M491.04 480.304L481.621 480.221L481.843 471.893L491.264 471.872L491.04 480.304Z" fill="#FF971D"/>
<path d="M491.04 482.12C491.035 482.12 491.029 482.12 491.024 482.12L481.605 482.037C481.117 482.032 480.652 481.832 480.314 481.483C479.976 481.131 479.792 480.66 479.805 480.173L480.028 471.844C480.054 470.862 480.856 470.079 481.839 470.077L491.261 470.055C491.792 470.084 492.221 470.252 492.564 470.603C492.907 470.954 493.093 471.429 493.079 471.92L492.855 480.352C492.828 481.337 492.023 482.12 491.04 482.12ZM483.485 478.422L489.272 478.472L489.399 473.692L483.611 473.705L483.485 478.422Z" fill="#FF971D"/>
<path d="M490.129 498.214L480.727 497.907L480.948 489.585L490.353 489.786L490.129 498.214Z" fill="#FF971D"/>
<path d="M490.129 500.031C490.108 500.031 490.09 500.031 490.069 500.029L480.667 499.722C479.669 499.69 478.884 498.856 478.911 497.859L479.133 489.536C479.159 488.535 480.034 487.743 480.987 487.769L490.391 487.971C490.874 487.982 491.333 488.184 491.667 488.534C492 488.884 492.18 489.352 492.167 489.836L491.943 498.263C491.931 498.747 491.726 499.204 491.375 499.536C491.037 499.854 490.591 500.031 490.129 500.031ZM482.589 496.151L488.362 496.339L488.489 491.563L482.715 491.439L482.589 496.151Z" fill="#FF971D"/>
<path d="M511.202 460.455C507.545 460.455 503.922 460.424 500.335 460.361C499.333 460.343 498.533 459.515 498.551 458.513C498.569 457.521 499.379 456.729 500.366 456.729C500.378 456.729 500.388 456.729 500.399 456.729C522.034 457.115 544.979 456.33 568.593 454.405C569.598 454.35 570.468 455.069 570.551 456.068C570.633 457.068 569.888 457.944 568.889 458.026C549.07 459.642 529.715 460.455 511.202 460.455Z" fill="#FF971D"/>
<path d="M503.693 477.59C502.694 477.59 501.882 476.783 501.877 475.783C501.872 474.78 502.682 473.963 503.685 473.958L550.2 473.738C550.202 473.738 550.206 473.738 550.208 473.738C551.207 473.738 552.02 474.546 552.024 475.546C552.029 476.549 551.22 477.366 550.217 477.37L503.701 477.59C503.699 477.59 503.695 477.59 503.693 477.59Z" fill="#FF971D"/>
<path d="M565.912 495.118C565.897 495.118 565.884 495.118 565.87 495.118L508.852 493.86C507.85 493.838 507.055 493.007 507.077 492.004C507.1 491.001 507.974 490.208 508.933 490.228L565.951 491.486C566.953 491.509 567.748 492.34 567.727 493.342C567.704 494.331 566.895 495.118 565.912 495.118Z" fill="#FF971D"/>
<path d="M634.565 546.583C640.644 539.638 640.356 528.957 633.299 522.006C634.375 532.885 625.579 543.337 613.384 545.931C605.911 547.52 599.446 545.565 592.472 543.448C589.222 549.535 605.339 554.104 610.239 554.645C619.421 555.659 629.137 552.785 634.565 546.583Z" fill="#1B1B1B"/>
<path d="M608.093 499.601C600.876 499.337 594.083 501.866 589.023 506.637C584.295 511.093 581.597 517.083 581.427 523.5C581.059 537.304 592.121 549.154 606.61 550.48C607.465 550.558 608.316 550.595 609.165 550.595C615.751 550.595 622.079 548.272 626.837 544.044C631.877 539.566 634.751 533.399 634.93 526.682C635.314 512.241 623.274 500.093 608.093 499.601ZM624.793 517.672L605.71 532.477C605.49 532.647 605.229 532.731 604.967 532.731C604.662 532.731 604.359 532.616 604.124 532.389L596.526 525.017C596.046 524.552 596.034 523.785 596.5 523.305C596.966 522.825 597.732 522.815 598.212 523.279L605.056 529.919L623.308 515.759C623.838 515.347 624.597 515.446 625.007 515.973C625.418 516.501 625.322 517.262 624.793 517.672Z" fill="#FF971D"/>
<path d="M647.975 201.956C647.728 201.956 647.476 201.905 647.235 201.797C646.32 201.388 645.91 200.315 646.319 199.399C652.505 185.562 650.787 168.668 641.943 156.359C641.358 155.544 641.543 154.411 642.358 153.825C643.17 153.241 644.306 153.425 644.892 154.24C654.477 167.579 656.338 185.886 649.634 200.881C649.332 201.556 648.669 201.956 647.975 201.956Z" fill="#FF971D"/>
<path d="M562.057 385.802C561.96 385.802 561.863 385.795 561.764 385.778C531.82 380.929 503.308 376.659 475.734 372.531C448.149 368.401 419.624 364.129 389.66 359.276C388.67 359.116 387.998 358.183 388.159 357.193C388.318 356.202 389.249 355.527 390.242 355.691C420.185 360.541 448.697 364.81 476.271 368.939C503.857 373.069 532.381 377.34 562.345 382.194C563.335 382.353 564.008 383.286 563.847 384.277C563.702 385.168 562.932 385.802 562.057 385.802Z" fill="#FF971D"/>
<path d="M374.298 363.747C373.295 363.711 372.514 362.868 372.55 361.865C372.636 359.524 372.738 357.619 372.84 355.715C372.94 353.828 373.04 351.941 373.126 349.622C373.164 348.621 373.955 347.85 375.008 347.875C376.011 347.911 376.792 348.754 376.756 349.757C376.669 352.098 376.568 354.003 376.466 355.907C376.365 357.794 376.266 359.681 376.18 362C376.141 363.034 375.253 363.795 374.298 363.747Z" fill="#FF971D"/>
<path d="M382.288 363.922C381.286 363.882 380.505 363.038 380.544 362.037C380.638 359.664 380.665 357.841 380.691 356.017C380.718 354.167 380.745 352.317 380.84 349.91C380.88 348.907 381.711 348.081 382.726 348.166C383.728 348.206 384.509 349.05 384.47 350.051C384.376 352.424 384.349 354.247 384.323 356.071C384.296 357.921 384.269 359.771 384.174 362.178C384.133 363.206 383.251 363.97 382.288 363.922Z" fill="#FF971D"/>
<path d="M133.873 378.943C133.519 384.521 132.933 390.632 128.967 394.569C127.531 395.995 125.715 397.051 124.531 398.692C123.377 400.294 122.934 402.39 123.343 404.322C123.517 405.144 123.838 405.943 123.87 406.784C123.902 407.624 123.55 408.562 122.772 408.88C121.813 409.272 120.702 408.492 120.351 407.518C120 406.544 120.193 405.469 120.39 404.453C121.629 398.074 122.867 391.696 124.105 385.317C124.392 383.837 124.71 382.291 125.663 381.122C127.043 379.431 129.371 378.953 131.399 378.145C133.426 377.338 135.533 375.612 135.233 373.451" fill="#1B1B1B"/>
<path d="M71.5545 491.143C71.4093 496.436 75.5826 500.842 80.873 500.987L184.002 503.815C184.834 498.042 186.078 492.624 179.829 489.788C172.325 486.375 156.982 490.146 148.947 490.766C137.033 491.7 124.936 492.408 113.224 490.019C106.218 488.599 99.3756 486.045 93.7421 482.163L81.3981 481.825C76.1048 481.68 71.6996 485.85 71.5545 491.143Z" fill="#FF971D"/>
<path d="M183.953 505.63L80.8238 502.802C74.5292 502.631 69.5647 497.391 69.7409 491.094C69.9123 484.81 75.2043 479.813 81.4492 480.009L93.7925 480.349C94.1437 480.358 94.4841 480.469 94.7725 480.668C99.8292 484.151 106.334 486.77 113.585 488.239C124.958 490.56 136.734 489.9 148.806 488.956C156.869 488.329 172.493 484.457 180.582 488.134C187.693 491.363 186.77 497.558 185.954 503.025L185.799 504.074C185.66 505.048 184.769 505.688 183.953 505.63ZM73.3705 491.193C73.2531 495.482 76.6317 499.055 80.9231 499.172L182.441 501.955C183.25 496.414 183.356 493.383 179.079 491.441C172.18 488.304 157.021 491.963 149.088 492.576C136.751 493.544 124.691 494.212 112.862 491.798C105.347 490.275 98.549 487.57 93.1624 483.964L81.35 483.639C76.8842 483.566 73.4836 487.043 73.3705 491.193Z" fill="#FF971D"/>
<path d="M252.576 606.098C251.823 606.098 251.141 605.629 250.875 604.914C248.526 598.584 246.263 592.804 243.867 586.685C240.091 577.037 235.81 566.099 229.614 549.093C229.27 548.15 229.756 547.108 230.699 546.765C231.643 546.424 232.684 546.907 233.027 547.849C239.208 564.816 243.479 575.731 247.25 585.361C249.488 591.08 251.611 596.503 253.801 602.364C258.555 601.983 263.13 601.513 267.423 600.962C277.465 599.679 286.1 597.924 293.09 595.748C300.971 593.308 306.762 590.341 310.306 586.93C311.028 586.236 312.176 586.257 312.874 586.98C313.569 587.702 313.546 588.852 312.824 589.548C308.869 593.355 302.591 596.609 294.167 599.217C286.979 601.455 278.135 603.254 267.884 604.566C263.122 605.176 258.018 605.689 252.715 606.093C252.668 606.097 252.622 606.098 252.576 606.098Z" fill="#FF971D"/>
<path d="M186.601 298.263C186.19 295.156 182.072 293.764 179.166 294.936C176.259 296.108 174.367 298.877 172.649 301.498C170.429 304.887 168.208 308.276 165.987 311.665C163.949 314.777 161.823 318.506 163.083 322.007L186.601 298.263Z" fill="#1B1B1B"/>
<path d="M128.339 363.715C127.418 363.321 126.99 362.253 127.385 361.331L133.351 347.397C133.745 346.476 134.809 346.048 135.736 346.442C136.657 346.837 137.085 347.904 136.69 348.827L130.724 362.761C130.334 363.674 129.273 364.112 128.339 363.715Z" fill="#FF971D"/>
<path d="M206.65 368.639C209.686 368.16 212.806 369.133 215.837 368.626C218.761 368.136 221.306 366.327 223.742 364.565C228.161 361.368 232.687 358.06 235.675 353.393C223.708 357.158 211.742 360.922 199.775 364.687C197.689 365.343 195.423 366.138 194.266 368.068C192.859 370.417 193.56 378.79 196.833 376.189C198.079 375.199 198.725 373.085 200.017 371.934C201.849 370.302 204.264 369.016 206.65 368.639Z" fill="#1B1B1B"/>
<path d="M173.742 284.034C170.904 283.011 168.691 281.044 167.516 278.495C167.096 277.584 167.494 276.505 168.405 276.085C169.314 275.663 170.394 276.064 170.815 276.974C171.795 279.1 173.617 280.128 174.973 280.616C177.394 281.488 180.213 281.349 182.516 280.244C186.336 278.411 189.482 274.457 191.867 268.495C194.596 261.692 195.814 254.216 195.389 246.873C195.169 243.191 193.287 240.115 191.676 236.621C170.713 257.455 155.33 246.794 155.041 246.769C154.01 246.221 153.054 245.702 152.246 245.804C152.004 245.835 151.773 246.185 151.683 246.335C150.934 247.592 150.759 250.149 151.324 251.596C152.115 253.626 153.561 254.879 155.952 256.485C156.594 256.915 156.893 257.705 156.697 258.454C153.737 269.689 153.739 269.245 152.476 280.509C152.364 281.506 151.464 282.224 150.47 282.111C149.473 282 148.755 281.102 148.868 280.105C150.114 268.98 150.198 268.863 152.859 258.762C150.882 257.346 149 255.635 147.941 252.916C146.497 249.216 147.619 242.72 151.789 242.201C153.728 241.947 155.366 242.829 157.037 243.716C171.112 251.042 185.444 238.065 190.953 232.146C191.862 231.165 193.513 231.476 193.984 232.751C195.686 237.336 198.689 241.21 199.014 246.659C199.47 254.537 198.164 262.553 195.239 269.845C192.505 276.678 188.754 281.279 184.087 283.519C180.919 285.038 177.052 285.225 173.742 284.034Z" fill="#FF971D"/>
<path d="M162.695 274.782C158.732 272.619 157.113 270.136 157.105 266.215C157.103 265.212 157.915 264.398 158.918 264.396C158.919 264.396 158.92 264.396 158.922 264.396C159.923 264.396 160.735 265.207 160.738 266.208C160.742 268.491 161.297 269.881 164.436 271.595C165.317 272.075 165.641 273.179 165.159 274.059C164.677 274.942 163.571 275.261 162.695 274.782Z" fill="#FF971D"/>
<path d="M185.895 267.156C185.047 266.62 184.794 265.498 185.331 264.651C185.843 263.839 186.895 263.572 187.73 264.024C187.913 263.936 188.218 263.62 188.275 263.281C188.651 260.973 185.358 257.953 186.663 254.131C186.987 253.181 188.017 252.674 188.969 252.998C189.918 253.323 190.425 254.356 190.101 255.304C189.423 257.288 192.442 260.315 191.858 263.871C191.61 265.368 190.566 266.731 189.197 267.344C188.124 267.826 186.915 267.802 185.895 267.156Z" fill="#FF971D"/>
<path d="M181.338 272.64C180.567 271.999 180.462 270.854 181.103 270.083C181.745 269.312 182.888 269.205 183.66 269.847C184.108 270.219 184.747 270.355 185.285 270.191C186.247 269.903 187.257 270.45 187.545 271.412C187.833 272.373 187.286 273.385 186.325 273.672C184.65 274.174 182.731 273.799 181.338 272.64Z" fill="#FF971D"/>
<path d="M149.883 245.171C147.277 247.743 147.835 252.647 151.714 255.14C152.863 255.878 154.278 256.427 154.836 257.71C155.335 258.856 154.963 260.19 154.586 261.386C153.762 264.004 153.018 267.883 152.194 270.5C152.651 267.199 152.551 262.284 151.224 259.252C150.277 257.087 148.449 255.534 147.231 253.594C145.802 251.318 145.559 248.471 145.579 245.805C145.64 237.806 148.011 230.044 150.36 222.427C151.323 219.301 152.55 215.848 155.385 214.428C157.532 213.354 160.049 213.748 162.418 213.516C164.331 213.329 166.084 212.504 167.225 210.87C168.513 209.026 169.354 207.576 171.976 207.521C173.369 207.492 174.706 208.03 175.798 208.918C178.473 211.092 180.895 209.882 182.947 207.842C185.167 205.635 188.625 204.448 191.704 204.392C195.283 204.327 198.866 205.76 201.414 208.275C197.747 207.356 193.579 209.035 191.574 212.24C195.77 212.601 200.018 213.489 203.608 215.691C207.198 217.893 210.056 221.583 210.444 225.776C207.555 224.156 204.069 223.631 200.831 224.328C207.017 228.137 209.52 235.931 206.688 242.636C206.319 243.51 205.809 244.403 204.952 244.807C204.088 245.215 203.035 245.026 202.207 244.549C200.335 243.47 198.565 240.173 195.552 238.125C193.782 236.921 191.532 236.234 189.476 236.824C187.736 237.323 186.703 238.572 185.431 239.743C184.332 240.753 183.024 241.574 181.796 242.456C178.831 244.584 175.514 246.278 171.9 246.944C167.727 247.712 163.449 247.076 159.257 246.438C155.932 245.932 153.202 241.895 149.883 245.171Z" fill="#FF971D"/>
<path d="M151.796 272.272C150.875 272.064 150.266 271.186 150.396 270.251C150.833 267.095 150.687 262.553 149.561 259.98C148.796 258.232 146.896 256.474 145.694 254.56C143.945 251.775 143.743 248.411 143.763 245.791C143.827 237.456 146.266 229.544 148.625 221.892C149.703 218.396 151.139 214.523 154.572 212.805C158.784 210.695 163.389 213.192 165.737 209.83C167.416 207.408 168.706 205.774 171.938 205.705C173.7 205.669 175.465 206.308 176.943 207.507C177.946 208.324 179.22 208.986 181.667 206.554C184.067 204.168 187.901 202.645 191.671 202.576C195.798 202.529 199.78 204.108 202.689 206.983C203.997 208.275 202.767 210.48 200.971 210.037C199.154 209.582 197.138 209.948 195.501 210.916C199.075 211.545 202.06 212.61 204.557 214.143C208.961 216.844 211.838 221.13 212.252 225.609C212.387 227.06 210.833 228.073 209.556 227.36C208.323 226.668 206.957 226.206 205.554 225.988C209.932 231.006 210.711 237.776 208.361 243.342C207.939 244.343 207.207 245.752 205.726 246.449C204.399 247.076 202.745 246.954 201.3 246.121C199.053 244.83 197.328 241.526 194.531 239.627C193.001 238.586 191.301 238.19 189.976 238.569C188.979 238.855 188.26 239.548 187.35 240.424C185.523 242.185 184.847 242.501 182.855 243.931C179.322 246.467 175.748 248.081 172.229 248.73C167.716 249.558 163.077 248.854 158.984 248.233C156.603 247.87 154.703 246.227 153.178 245.807C152.624 245.654 152.048 245.586 151.159 246.463C150.29 247.322 149.908 248.815 150.208 250.182C150.502 251.517 151.432 252.799 152.695 253.612C153.864 254.363 155.674 255.082 156.502 256.985C157.299 258.82 156.684 260.767 156.318 261.931C155.541 264.394 154.767 268.372 153.926 271.045C153.684 271.815 152.722 272.477 151.796 272.272ZM152.507 257.745C152.799 258.281 153.028 258.819 153.226 259.393C153.354 258.543 153.176 258.213 152.507 257.745ZM172.015 209.337C170.305 209.373 170.001 210.12 168.714 211.91C167.352 213.859 165.179 215.071 162.595 215.324C160.205 215.556 157.875 215.212 156.198 216.052C154.047 217.13 152.992 220.056 152.096 222.962C149.845 230.265 147.517 237.815 147.399 245.511C147.723 244.905 148.128 244.352 148.608 243.879C150.237 242.27 152.102 241.744 154.145 242.306C156.166 242.866 157.994 244.41 159.53 244.642C168.23 245.967 173.328 246.299 180.736 240.98C182.845 239.475 183.24 239.336 184.83 237.809C185.899 236.779 187.11 235.614 188.974 235.079C191.358 234.396 194.126 234.958 196.573 236.623C199.759 238.788 201.673 242.147 203.114 242.974C203.495 243.195 203.943 243.275 204.176 243.165C204.357 243.08 204.649 242.796 205.015 241.931C207.477 236.098 205.347 229.243 199.879 225.874C198.489 225.018 198.853 222.895 200.45 222.552C202.844 222.036 205.373 222.115 207.748 222.746C206.747 220.604 204.976 218.659 202.658 217.238C199.783 215.476 196.211 214.462 191.418 214.05C190.07 213.936 189.315 212.428 190.035 211.277C191.34 209.192 193.385 207.648 195.689 206.841C191.23 205.321 186.574 206.798 184.227 209.13C180.12 213.216 176.753 212.033 174.653 210.327C173.757 209.599 172.746 209.299 172.015 209.337Z" fill="#FF971D"/>
<path d="M181.242 306.141C180.24 306.117 179.446 305.285 179.469 304.282C179.568 300.06 179.239 288.24 179.34 283.896C179.365 282.892 180.255 282.11 181.198 282.122C182.201 282.146 182.995 282.978 182.972 283.981C182.871 288.196 183.201 300.055 183.101 304.367C183.077 305.356 182.328 306.141 181.242 306.141Z" fill="#FF971D"/>
<path d="M126.821 381.687C126.021 381.687 125.321 381.649 124.668 381.57C119.503 380.991 118.448 377.612 114.899 376.782C112.084 376.149 108.627 377.408 105.164 377.754C98.8277 378.41 92.7944 375.905 88.2543 373.653C87.0543 373.056 78.6185 369.544 76.5259 369.15C75.1874 369.561 73.8432 368.306 74.2641 366.892C76.7612 358.523 79.9286 350.114 83.6789 341.901C84.0962 340.989 85.1721 340.585 86.0848 341.003C86.9976 341.419 87.3995 342.496 86.9822 343.409C83.6008 350.816 80.703 358.382 78.3549 365.929C82.7129 367.059 89.7796 370.355 89.8693 370.4C94.225 372.56 99.4082 374.697 104.797 374.141C108.149 373.804 111.944 372.401 115.707 373.241C117.817 373.735 119.084 374.637 120.822 375.949C122.445 377.172 123.127 377.742 125.088 377.962C126.602 378.143 128.402 378.015 129.906 377.916C130.51 377.877 131.094 377.838 131.659 377.813C138.986 364.547 143.12 354.17 145.862 342.215C146.086 341.237 147.063 340.623 148.038 340.851C149.015 341.074 149.627 342.05 149.402 343.026C146.516 355.609 142.15 366.462 134.33 380.486C134.01 381.06 133.405 381.416 132.749 381.418C131.971 381.42 131.083 381.48 130.143 381.541C129.429 381.588 128.694 381.636 127.957 381.664C127.557 381.679 127.178 381.687 126.821 381.687Z" fill="#FF971D"/>
<path d="M89.8267 335.256C89.5452 335.256 89.2603 335.191 88.9932 335.053C88.1029 334.592 87.7542 333.496 88.2153 332.605C92.8842 323.583 98.4481 314.509 104.753 305.636C110.523 297.505 118.838 291.91 128.167 289.886C133.414 288.756 133.885 288.26 139.489 287.852C140.473 287.776 141.36 288.529 141.433 289.53C141.507 290.531 140.755 291.401 139.754 291.474C134.469 291.859 134.316 292.278 128.934 293.437C120.497 295.267 112.96 300.347 107.715 307.739C101.508 316.475 96.0327 325.403 91.4405 334.275C91.1178 334.899 90.4841 335.256 89.8267 335.256Z" fill="#FF971D"/>
<path d="M189.668 370.151C189.307 369.215 189.772 368.164 190.708 367.803C192.009 367.3 193.228 366.617 194.517 365.894C198.389 363.725 199.54 363.3 203.994 362.48C207.607 361.815 208.759 361.621 214.83 358.37C216.135 357.67 217.485 356.947 218.866 356.299C219.591 355.959 223.004 355.062 232.39 352.749C232.465 352.731 232.538 352.712 232.609 352.695C227.38 340.659 223.486 332.723 213.218 320.079C208.666 314.476 200.943 306.869 195.595 303.808C190.404 300.837 186.147 298.667 182.245 297.736C181.269 297.503 180.667 296.524 180.9 295.548C181.131 294.572 182.115 293.965 183.087 294.203C187.412 295.234 191.937 297.529 197.399 300.656C203.872 304.36 212.091 312.932 216.037 317.79C227.156 331.479 230.985 339.76 236.793 353.218C237.006 353.71 236.991 354.269 236.752 354.748C236.374 355.508 236.374 355.508 233.259 356.275C230.003 357.078 221.351 359.21 220.375 359.601C216.933 361.222 213.498 363.451 209.664 364.833C206.241 366.068 202.69 366.089 199.756 367.297C197.175 368.356 194.931 370.066 192.016 371.192C191.801 371.274 190.027 371.084 189.668 370.151Z" fill="#FF971D"/>
<path d="M198.727 395.057C195.541 385.441 193.891 379.35 191.662 368.987C191.451 368.007 192.076 367.041 193.056 366.83C194.043 366.621 195.002 367.246 195.214 368.223C197.41 378.44 199.037 384.442 202.175 393.915C202.491 394.867 201.974 395.894 201.022 396.21C200.078 396.523 199.045 396.016 198.727 395.057Z" fill="#FF971D"/>
<path d="M105.933 325.606C104.958 325.375 104.355 324.395 104.587 323.42C106.166 316.767 108.894 310.558 112.691 304.963C113.255 304.134 114.386 303.919 115.214 304.481C116.044 305.045 116.26 306.174 115.697 307.004C112.197 312.157 109.577 318.124 108.119 324.259C107.884 325.254 106.882 325.837 105.933 325.606Z" fill="#FF971D"/>
<path d="M118.447 317.564C118.398 317.564 118.349 317.562 118.3 317.558C117.299 317.478 116.555 316.602 116.635 315.603C116.937 311.845 118.809 308.192 121.64 305.828C122.409 305.185 123.554 305.289 124.197 306.059C124.84 306.829 124.737 307.973 123.966 308.616C121.869 310.367 120.481 313.089 120.255 315.893C120.178 316.844 119.384 317.564 118.447 317.564Z" fill="#FF971D"/>
<path d="M208.984 330.753C207.982 330.753 207.168 329.939 207.168 328.937C207.168 327.312 207.168 325.631 206.6 324.274C206.136 323.171 205.174 322.376 204.414 322.452C203.888 322.494 202.868 322.863 201.721 322.493C200.036 321.95 199.442 320.435 198.864 318.894C198.127 316.993 196.589 315.456 194.749 314.781C193.808 314.436 193.325 313.393 193.67 312.451C194.015 311.508 195.056 311.025 196 311.371C198.806 312.4 201.142 314.722 202.251 317.583C202.371 317.902 202.674 318.755 202.869 319.021C203.221 318.986 203.58 318.876 204.116 318.831C206.896 318.609 209.039 320.697 209.95 322.871C210.8 324.901 210.8 327.045 210.8 328.937C210.8 329.939 209.987 330.753 208.984 330.753Z" fill="#FF971D"/>
<path d="M295.896 325.763C294.913 325.57 293.959 326.217 293.77 327.203C292.093 335.911 288.753 356.586 283.4 371.039C284.672 370.865 285.932 371.539 286.707 372.584C292.213 357.849 295.798 335.896 297.336 327.889C297.526 326.904 296.88 325.952 295.896 325.763Z" fill="#FF971D"/>
<path d="M262.051 313.148C261.911 311.576 261.664 309.733 261.438 307.991C261.001 304.684 260.608 301.234 261.024 298.654C261.269 297.074 261.601 295.214 262.191 293.483C263.949 288.125 268.054 286.43 273.525 284.986C275.351 284.5 277.435 283.951 279.574 284.143C282.324 284.396 284.542 285.883 285.368 288.024C286.619 291.296 284.303 294.69 281.451 296.604C279.983 297.583 276.833 298.567 275.946 299.444C276.065 300.336 277.583 302.382 278.354 302.624C279.337 302.822 279.964 303.776 279.766 304.76C279.57 305.742 278.594 306.382 277.619 306.181C275.665 305.789 273.561 303.325 272.731 301.266C272.154 299.835 272.067 298.256 273.13 297.143C274.685 295.343 278.1 294.473 279.432 293.586C281.04 292.506 282.482 290.644 281.977 289.327C281.669 288.525 280.544 287.88 279.245 287.76C277.735 287.619 276.068 288.067 274.454 288.497C271.387 289.307 268.5 290.203 266.843 292.255C265.509 293.905 264.937 297.12 264.612 299.222C264.213 301.694 264.821 305.734 265.123 308.16C265.327 309.732 265.539 311.359 265.669 312.826C265.757 313.825 265.02 314.707 264.021 314.796C263.008 314.884 262.139 314.137 262.051 313.148Z" fill="#FF971D"/>
<path d="M297.119 318.732C296.129 318.574 295.454 317.642 295.613 316.651C297.162 306.982 297.405 304.502 298.432 294.059C298.657 291.773 299.006 289.535 298.349 288.003C297.958 287.098 296.878 286.261 295.952 286.521C295.156 286.74 294.582 287.648 294.309 288.424C292.822 292.625 292.713 293.103 292.374 296.265C292.289 297.066 292.479 297.949 292.995 298.214C293.13 298.283 293.456 298.203 293.616 298.091C293.641 297.175 294.352 296.406 295.288 296.331C296.265 296.267 297.162 296.997 297.242 297.997C297.472 300.868 293.895 302.76 291.336 301.446C289.512 300.509 288.499 298.35 288.756 295.944C289.167 292.094 289.446 291.277 290.882 287.22C291.629 285.092 293.164 283.522 294.987 283.019C297.887 282.219 300.667 284.198 301.686 286.571C302.738 289.024 302.311 291.731 302.047 294.414C301.036 304.687 300.765 307.448 299.2 317.226C299.041 318.216 298.109 318.889 297.119 318.732Z" fill="#FF971D"/>
<path d="M285.105 301.279C281.753 300.432 280.695 295.282 281.506 292.282C281.768 291.312 282.766 290.742 283.733 291.002C284.702 291.265 285.274 292.263 285.013 293.23C284.738 294.241 284.909 296.183 285.546 297.271C285.748 297.616 285.922 297.739 285.992 297.757C286.553 297.893 287.062 297.783 287.551 297.409C288.344 296.804 288.834 295.703 288.848 294.989C288.868 293.998 289.678 293.21 290.663 293.21C291.686 293.21 292.5 294.049 292.48 295.062C292.44 296.979 291.345 299.082 289.755 300.296C288.407 301.325 286.766 301.692 285.105 301.279Z" fill="#FF971D"/>
<path d="M266.517 291.317C265.515 291.28 264.732 290.439 264.769 289.436L265.82 260.7C265.874 259.178 265.943 257.283 266.783 255.528C267.643 253.734 269.586 251.95 272.013 251.95C272.054 251.95 272.094 251.951 272.136 251.951C274.016 251.997 275.809 253.158 276.815 254.98C277.577 256.358 277.806 257.834 277.992 259.352C278.794 265.91 279.187 272.738 279.48 279.306C280.787 278.808 282.153 278.54 283.087 278.473C284.814 278.35 286.193 278.685 287.415 279.552C289.4 279.147 292.066 279.694 293.04 280.151C294.034 280.617 296.865 282.496 296.806 284.925C296.781 285.928 295.938 286.701 294.945 286.696C293.973 286.671 293.199 285.889 293.175 284.929C293.025 284.555 292.184 283.761 291.497 283.439C290.834 283.127 288.598 282.889 288.008 283.135C287.289 283.653 286.399 283.52 285.767 282.899C285.067 282.21 284.485 282.012 283.346 282.096C281.839 282.203 279.712 282.974 279.205 283.596C278.728 284.181 277.938 284.413 277.224 284.174C276.508 283.935 276.014 283.279 275.982 282.526C275.674 275.111 275.298 267.247 274.386 259.793C274.24 258.599 274.084 257.545 273.637 256.736C273.326 256.174 272.714 255.598 272.046 255.583C272.038 255.581 272.028 255.581 272.019 255.581C271.313 255.581 270.476 256.227 270.058 257.097C269.545 258.168 269.497 259.522 269.449 260.831L268.398 289.568C268.361 290.601 267.473 291.367 266.517 291.317ZM293.174 284.836V284.837C293.174 284.837 293.174 284.837 293.174 284.836Z" fill="#FF971D"/>
<path d="M282.727 294.64C281.764 294.358 281.213 293.348 281.496 292.386C281.884 291.065 284.512 282.501 284.916 281.125C285.199 280.163 286.212 279.616 287.171 279.895C288.133 280.177 288.684 281.187 288.402 282.149C288.014 283.47 285.386 292.034 284.981 293.41C284.7 294.363 283.701 294.923 282.727 294.64Z" fill="#FF971D"/>
<path d="M247.315 361.745C246.189 361.322 245.764 359.932 246.503 358.946C247.03 357.921 250.885 348.989 253.702 341.363C257.013 332.409 258.959 325.578 260.119 321.914C260.725 319.996 261.353 318.013 261.788 316.089C262.275 313.925 262.132 311.096 261.364 307.679C261.143 306.701 261.757 305.729 262.736 305.51C263.715 305.282 264.687 305.904 264.906 306.882C266.495 313.93 265.56 316.766 263.582 323.009C259.767 335.109 258.143 340.959 251.567 356.455C251.092 357.576 250.621 358.67 250.26 359.478C249.577 361.006 248.926 362.343 247.315 361.745ZM248.588 358.342C248.298 358.234 248.017 358.206 247.757 358.238C248.036 358.207 248.321 358.242 248.588 358.342Z" fill="#FF971D"/>
<path d="M272.185 315.403C271.512 314.659 271.572 313.51 272.316 312.838C273.058 312.167 274.208 312.224 274.881 312.97C276.546 314.814 279.358 315.629 281.726 314.952C282.685 314.678 283.695 315.234 283.973 316.198C284.248 317.162 283.691 318.168 282.727 318.445C278.982 319.514 274.764 318.259 272.185 315.403Z" fill="#FF971D"/>
<path d="M311.564 590.055C310.838 590.055 310.151 589.616 309.872 588.899C300.873 565.802 291.817 540.269 282.957 513.011C275.957 491.441 267.63 440.446 237.878 440.305C236.874 440.301 236.066 439.484 236.07 438.481C236.075 437.481 236.887 436.673 237.886 436.673C237.889 436.673 237.892 436.673 237.895 436.673C270.701 436.83 279.094 489.348 286.412 511.889C295.249 539.081 304.281 564.548 313.256 587.579C313.62 588.515 313.158 589.567 312.224 589.931C312.006 590.016 311.784 590.055 311.564 590.055Z" fill="#FF971D"/>
<path d="M237.743 435.397C236.593 436.044 235.194 436.046 234.075 435.387C237.258 457.765 237.154 481.12 233.733 510.897C232.491 521.875 230.808 533.336 228.583 545.934C228.566 546.027 228.558 546.122 228.556 546.218L228.518 548.333C226.055 570.747 224.714 590.164 226.164 611.538C210.148 613.667 194.768 613.858 180.127 612.402C177.642 592.515 179.651 573.421 181.773 553.232C184.833 524.121 184.752 520.386 185.416 507.586C185.796 500.693 189.484 492.177 180.581 488.134C172.489 484.456 156.925 488.325 148.808 488.956C147.293 489.072 145.717 489.205 144.094 489.341C123.939 491.04 96.3395 493.366 91.9733 472.547C91.2307 469.011 89.3273 456.962 88.1805 442.296C88.1025 441.297 87.2358 440.541 86.2285 440.628C85.2295 440.706 84.4823 441.58 84.5603 442.58C85.7201 457.422 87.6615 469.681 88.4193 473.293C93.443 497.256 122.898 494.771 144.399 492.962C146.013 492.826 147.581 492.693 149.087 492.576C157.019 491.963 172.181 488.306 179.079 491.441C183.491 493.444 183.239 496.607 182.362 502.49C182.197 503.651 181.896 505.44 181.788 507.393C180.546 531.403 181.128 521.278 179.836 535.953C177.491 562.836 173.113 587.743 176.713 614.303C176.825 615.13 177.487 615.776 178.318 615.865C194.913 617.654 211.755 617.247 228.349 614.905C229.297 614.771 229.978 613.926 229.907 612.971C228.285 591.171 229.626 571.49 232.138 548.647C232.144 548.591 232.148 548.536 232.149 548.48L232.185 546.424C234.411 533.808 236.098 522.318 237.341 511.307C240.773 481.443 240.897 457.935 237.743 435.397Z" fill="#FF971D"/>
<path d="M163.606 323.239C154.343 312.644 145.368 302.128 136.069 291.491C135.408 290.735 135.485 289.588 136.24 288.929C136.995 288.267 138.145 288.347 138.802 289.1C147.843 299.441 156.254 309.291 165.197 319.54C172.993 313.171 179.699 305.232 184.654 296.488C185.148 295.616 186.259 295.31 187.129 295.804C188.001 296.298 188.309 297.406 187.813 298.278C182.344 307.931 174.833 316.643 166.091 323.475C165.33 324.069 164.238 323.964 163.606 323.239Z" fill="#FF971D"/>
<path d="M126.458 416.403C120.355 414.565 119.326 414.031 119.11 412.584C117.993 405.015 120.217 395.614 122.178 387.32C122.793 384.719 123.375 382.263 123.818 380.012C124.012 379.028 124.97 378.382 125.951 378.582C126.935 378.776 127.576 379.731 127.382 380.715C125.587 389.831 121.586 402.234 122.604 411.294C123.786 411.806 126.514 412.626 127.505 412.924C147.841 419.067 165.701 423.562 186.663 420.071C187.637 419.908 188.586 420.574 188.752 421.564C188.917 422.553 188.248 423.489 187.259 423.654C166.121 427.178 148.465 423.015 126.458 416.403Z" fill="#FF971D"/>
<path d="M165.98 453.528C130.624 451.586 135.184 450.529 100.535 444.664C92.0952 443.237 83.4218 441.278 78.2409 434.526C74.5544 429.72 73.6205 423.43 73.1948 417.911C71.9262 401.483 73.8451 384.485 78.7434 368.753C79.0425 367.796 80.0604 367.262 81.0181 367.559C81.9758 367.858 82.5102 368.876 82.2122 369.834C77.4486 385.129 75.5818 401.658 76.815 417.632C77.2206 422.87 78.0221 428.274 81.1234 432.315C85.5015 438.022 93.4123 439.777 101.14 441.084C136.019 446.985 131.013 447.971 166.179 449.901C167.18 449.956 167.947 450.812 167.893 451.814C167.841 452.763 167.054 453.567 165.98 453.528Z" fill="#FF971D"/>
<path d="M142.209 502.882C152.183 544.247 160.976 581.27 170.949 622.634L142.209 502.882Z" fill="#FF971D"/>
<path d="M170.948 624.451C170.128 624.451 169.384 623.893 169.184 623.06C164.202 602.397 159.514 582.818 154.828 563.239C150.131 543.625 145.435 524.01 140.444 503.308C140.208 502.332 140.808 501.352 141.783 501.117C142.766 500.887 143.74 501.482 143.974 502.457C153.696 542.769 162.633 580.393 172.715 622.209C172.992 623.358 172.118 624.451 170.948 624.451Z" fill="#FF971D"/>
<path d="M88.8628 625.005C87.8862 624.78 87.2749 623.806 87.4997 622.829L115.172 502.291C115.395 501.316 116.363 500.7 117.348 500.928C118.325 501.153 118.936 502.127 118.711 503.105L91.0394 623.642C90.8123 624.633 89.822 625.228 88.8628 625.005Z" fill="#FF971D"/>
<path d="M100.239 582.221C99.2504 582.221 98.4406 581.428 98.4241 580.436C98.4075 579.432 99.2068 578.606 100.209 578.589L159.553 577.597C160.557 577.63 161.382 578.38 161.4 579.382C161.416 580.386 160.617 581.212 159.614 581.229L100.271 582.221C100.26 582.221 100.25 582.221 100.239 582.221Z" fill="#FF971D"/>
<path d="M223.534 421.132C223.095 420.23 223.47 419.143 224.371 418.703C232.525 414.73 240.096 412.526 239.964 409.846C239.863 407.804 237.343 407.398 235.506 408.201C227.728 411.615 217.073 416.29 208.663 420.567C207.769 421.023 206.677 420.665 206.221 419.771C205.766 418.877 206.123 417.783 207.017 417.33C215.519 413.006 226.227 408.307 234.047 404.875C238.343 402.991 243.366 405.041 243.592 409.667C243.876 415.431 235.888 417.131 225.962 421.969C225.052 422.409 223.97 422.027 223.534 421.132Z" fill="#FF971D"/>
<path d="M236.053 434.46C235.737 433.508 236.253 432.48 237.205 432.164C239.418 431.43 240.611 429.484 240.752 428.337C240.798 427.962 240.726 427.753 240.688 427.729C239.395 426.912 237.569 427.401 236.266 427.961C234.496 428.716 234.224 428.53 232.258 429.536C231.366 429.992 230.272 429.637 229.814 428.745C229.358 427.851 229.713 426.757 230.605 426.301C232.989 425.085 233.341 425.262 234.84 424.62C237.858 423.333 240.551 423.344 242.629 424.66C243.945 425.491 244.575 426.992 244.357 428.777C244.06 431.206 242.054 434.382 238.349 435.611C237.392 435.926 236.368 435.408 236.053 434.46Z" fill="#FF971D"/>
<path d="M236.848 425.815C236.555 424.855 237.094 423.84 238.053 423.546C242.834 422.084 242.343 417.424 237.941 417.125C236.941 417.058 236.184 416.191 236.252 415.191C236.32 414.189 237.185 413.411 238.187 413.502C246.581 414.072 247.764 424.372 239.117 427.02C238.17 427.31 237.146 426.783 236.848 425.815Z" fill="#FF971D"/>
<path d="M203.109 581.584C202.108 581.517 201.35 580.652 201.416 579.652L207.853 482.226C208.002 479.983 208.156 477.666 207.58 475.599C206.784 472.738 204.415 470.06 201.082 468.253C197.89 466.523 194.191 465.66 190.615 464.825C189.638 464.597 189.031 463.62 189.259 462.644C189.487 461.667 190.464 461.062 191.44 461.288C195.251 462.177 199.192 463.097 202.813 465.06C207.069 467.368 210.005 470.765 211.08 474.625C211.821 477.288 211.639 480.039 211.478 482.466L205.042 579.891C204.976 580.868 204.142 581.644 203.109 581.584Z" fill="#FF971D"/>
<path d="M219.48 555.473C219.068 555.473 218.653 555.333 218.312 555.047C217.545 554.401 217.445 553.256 218.091 552.487C218.695 551.77 218.403 550.283 218.051 549.163L217.895 548.671C217.366 547.028 216.71 544.984 217.379 542.921C218.014 540.97 219.486 539.89 220.244 538.674C221.716 536.313 220.674 532.895 219.583 529.876C219.321 529.152 219.544 528.341 220.14 527.853L221.409 526.815C222.187 526.181 223.33 526.294 223.965 527.07C224.6 527.847 224.485 528.99 223.709 529.626L223.428 529.856C224.412 532.744 225.52 537.077 223.326 540.596C222.936 541.222 222.488 541.747 222.054 542.256C220.55 544.017 220.329 544.373 221.352 547.559L221.518 548.075C222.424 550.967 222.207 553.238 220.872 554.826C220.513 555.253 219.998 555.473 219.48 555.473Z" fill="#FF971D"/>
<path d="M109.67 477.599C102.851 473.701 97.3745 467.586 94.2484 460.381C93.8488 459.461 94.2709 458.392 95.1919 457.993C96.113 457.594 97.1806 458.016 97.5802 458.936C100.396 465.426 105.33 470.934 111.472 474.444C112.344 474.942 112.645 476.052 112.149 476.922C111.648 477.797 110.537 478.093 109.67 477.599Z" fill="#FF971D"/>
<path d="M110.18 465.842L106.745 462.648C106.011 461.965 105.969 460.816 106.652 460.082C107.337 459.349 108.485 459.306 109.219 459.988L112.654 463.182C113.388 463.865 113.43 465.014 112.747 465.748C112.062 466.483 110.915 466.524 110.18 465.842Z" fill="#FF971D"/>
<path d="M230.71 468.106C229.716 467.965 229.026 467.045 229.167 466.052C229.346 464.799 227.676 463.433 226.477 463.853C224.943 464.399 223.518 462.797 224.24 461.337C224.785 460.235 224.299 458.604 223.24 457.98C222.376 457.471 222.088 456.357 222.598 455.493C223.106 454.63 224.22 454.34 225.084 454.851C226.97 455.961 228.077 458.112 228.096 460.264C230.833 460.854 233.189 463.563 232.763 466.563C232.634 467.47 231.721 468.245 230.71 468.106Z" fill="#FF971D"/>
<path d="M272.237 575.238L252.621 506.384C252.346 505.42 252.905 504.415 253.869 504.14C254.837 503.869 255.839 504.424 256.114 505.389L275.729 574.243C276.005 575.208 275.445 576.213 274.481 576.487C273.507 576.763 272.509 576.195 272.237 575.238Z" fill="#FF971D"/>
<path d="M291.322 559.985C288.698 558.314 287.304 555.017 287.93 551.971C288.145 550.928 288.59 549.931 288.503 549.36C288.368 548.46 286.761 547.54 285.588 546.333C281.055 541.677 283.463 533.791 280.069 530.272C279.374 529.55 279.394 528.4 280.116 527.704C280.837 527.01 281.986 527.028 282.684 527.751C287.173 532.407 284.799 540.315 288.19 543.799C289.384 545.023 291.706 546.241 292.095 548.818C292.33 550.38 291.683 551.742 291.489 552.7C291.164 554.281 291.916 556.056 293.275 556.923C294.12 557.462 294.369 558.584 293.83 559.431C293.291 560.274 292.17 560.526 291.322 559.985Z" fill="#FF971D"/>
<path d="M344.551 346.45C344.187 345.954 343.582 345.676 342.965 345.724C303.731 348.538 269.428 350.12 232.853 354.223C232.127 354.308 231.521 354.816 231.316 355.518C228.338 365.615 225.638 374.151 223.035 382.396C219.444 393.719 215.413 406.478 212.32 418.752C220.008 415.011 228.822 411.137 235.505 408.195C236.715 407.674 238.144 407.687 239.052 408.256C239.634 408.607 239.936 409.127 239.96 409.842C240.057 411.766 236.11 413.486 231.122 415.653C229.125 416.513 226.885 417.481 224.524 418.631C223.628 419.067 223.107 420.108 223.483 421.028C223.87 421.963 224.984 422.44 225.965 421.973C229.998 419.987 234.308 418.321 237.224 416.876C237.478 417.021 237.757 417.106 238.06 417.13C242.318 417.512 242.789 422.038 238.144 423.523C237.963 423.583 237.781 423.668 237.624 423.777C235.844 424.065 235.143 424.592 233.532 425.096C232.817 425.326 232.006 425.581 230.602 426.295C229.718 426.755 229.355 427.857 229.815 428.741C230.275 429.636 231.365 429.988 232.26 429.54C234.309 428.494 234.441 428.744 236.267 427.966C237.575 427.397 239.391 426.912 240.687 427.724C240.723 427.748 240.796 427.966 240.747 428.341C240.614 429.455 239.452 431.368 237.321 432.13C237.309 432.13 237.297 432.142 237.272 432.142C235.735 432.542 234.222 432.929 232.684 433.341C231.788 433.571 231.11 434.394 231.219 435.315C231.34 436.44 232.43 437.155 233.483 436.876C234.924 436.501 236.352 436.138 237.793 435.762C237.914 435.823 237.963 435.908 238.011 436.004C238.362 436.731 238.06 438.208 237.757 438.704C237.466 439.225 236.594 439.975 235.675 440.569C261.829 437.493 291.349 433.174 316.899 426.767C317.529 426.61 318.013 426.137 318.207 425.52C327.505 394.309 333.655 377.153 344.793 348.182C345.011 347.6 344.926 346.947 344.551 346.45ZM280.832 398.134C274.598 399.139 268.871 395.725 268.023 390.507C267.188 385.289 271.546 380.253 277.781 379.248C284.005 378.231 289.743 381.645 290.578 386.863C291.426 392.081 287.055 397.129 280.832 398.134ZM322.577 369.708L314.501 406.379C314.368 406.948 313.872 407.323 313.315 407.323C312.535 407.323 311.963 406.602 312.128 405.858L320.216 369.187C320.361 368.533 321.003 368.122 321.657 368.267C322.31 368.412 322.722 369.054 322.577 369.708Z" fill="#FF971D"/>
<path d="M240.878 440.557C239.813 442.385 236.992 444.213 235.358 444.83C227.051 447.968 219.373 449.084 219.232 449.225C203.311 452.304 180.945 453.535 166.119 453.535C165.126 453.535 164.315 452.736 164.303 451.731C164.291 450.726 165.102 449.903 166.107 449.903C185.794 449.649 215.782 448.343 234.087 441.428C234.559 441.246 235.116 440.944 235.66 440.569C235.673 440.581 235.673 440.569 235.673 440.569C236.593 439.975 237.465 439.225 237.755 438.704C238.159 438.042 238.414 436.074 237.792 435.762C236.351 436.137 234.922 436.501 233.481 436.876C232.428 437.154 231.339 436.44 231.217 435.314C231.109 434.394 231.786 433.571 232.682 433.341C234.22 432.929 235.733 432.542 237.271 432.142C237.295 432.142 237.307 432.13 237.319 432.13C238.448 431.879 240.284 432.641 241.121 434.128C241.181 434.225 241.242 434.334 241.29 434.443C242.159 436.255 241.844 438.842 240.878 440.557Z" fill="#FF971D"/>
<path d="M243.591 409.672C243.886 415.499 235.561 417.249 225.964 421.973C224.984 422.439 223.869 421.964 223.482 421.028C223.106 420.108 223.627 419.067 224.523 418.631C232.345 414.82 240.094 412.531 239.959 409.842C239.892 407.828 237.36 407.397 235.504 408.195C227.898 411.544 216.647 416.495 208.663 420.568C207.682 421.065 206.472 420.593 206.108 419.515C205.818 418.643 206.302 417.699 207.113 417.275C215.74 412.909 225.836 408.473 234.051 404.878C236.376 403.849 239.027 403.958 240.964 405.168C242.562 406.149 243.494 407.747 243.591 409.672Z" fill="#FF971D"/>
<path d="M216.762 413.801C216.4 415.497 214.324 415.925 213.42 414.515C213.179 414.094 213.073 413.625 213.178 413.159C213.541 411.476 213.808 410.084 213.614 408.788C213.529 408.171 211.919 407.88 211.423 407.808C206.495 407.069 202.27 408.377 198.88 411.706C196.858 413.68 194.945 416.307 194.001 418.377C192.657 421.307 191.374 422.881 187.984 423.559C186.209 423.938 171.933 425.193 168.928 424.83C167.935 424.697 167.233 423.777 167.366 422.784C167.499 421.791 168.407 421.101 169.4 421.222C171.555 421.513 182.451 420.556 185.962 420.193C189.049 419.878 189.582 419.321 190.696 416.876C192.052 413.897 194.497 410.919 196.337 409.103C200.527 404.999 205.938 403.304 211.968 404.212C214.475 404.587 216.864 405.723 217.21 408.256C217.444 409.857 217.045 412.315 216.762 413.801Z" fill="#FF971D"/>
<path d="M244.354 428.777C244.148 430.508 243.07 432.615 241.121 434.128C240.25 434.815 239.347 435.284 238.349 435.617C237.389 435.916 236.366 435.406 236.048 434.455C235.733 433.511 236.254 432.481 237.211 432.167C237.235 432.154 237.247 432.154 237.271 432.142C237.295 432.142 237.307 432.13 237.319 432.13C239.45 431.368 240.612 429.455 240.746 428.341C240.794 427.966 240.722 427.748 240.685 427.724C239.39 426.912 237.574 427.397 236.266 427.966C234.439 428.744 234.288 428.504 232.259 429.54C231.363 429.988 230.273 429.636 229.813 428.741C229.353 427.857 229.716 426.755 230.6 426.295C232.811 425.171 233.335 425.254 234.837 424.624C237.491 423.482 240.606 423.126 242.925 424.866C244.039 425.726 244.559 427.13 244.354 428.777Z" fill="#FF971D"/>
<path d="M241.182 426.15C240.57 426.492 239.28 427.094 238.579 427.094C236.557 427.094 235.995 424.238 238.143 423.522C242.79 422.037 242.316 417.512 238.059 417.13C237.756 417.106 237.477 417.021 237.223 416.876C235.446 415.925 236.317 413.335 238.191 413.498C242.248 413.81 244.688 416.369 245.044 419.346C245.334 421.905 243.966 424.608 241.182 426.15Z" fill="#FF971D"/>
<path d="M244.793 631.213C242.94 630.29 240.966 629.791 239.057 629.31C238.191 629.091 237.325 628.874 236.477 628.614C225.039 625.113 217.734 620.628 215.904 615.977C215.623 615.275 215.376 614.628 215.161 614.035C214.821 613.091 213.773 612.602 212.835 612.946C212.096 613.214 211.644 613.912 211.644 614.655L187.324 614.679L187.324 614.648C187.306 613.656 186.496 612.864 185.509 612.864C185.497 612.864 185.486 612.864 185.476 612.864C184.473 612.882 183.674 613.71 183.692 614.712C183.773 619.471 183.894 627.377 184.137 633.587C184.323 637.747 184.775 642.054 187.996 644.982C191.004 647.712 195.262 648.124 199.362 648.312C238.082 650.095 236.509 650.047 238.007 650.047C239.834 650.047 241.733 649.895 243.567 649.293C246.393 648.362 250.783 644.524 251.056 641.144C251.37 637.635 247.876 632.75 244.793 631.213ZM232.614 638.283C232.182 638.792 231.419 638.855 230.908 638.421C225.908 634.172 219.946 630.929 213.667 629.043C213.027 628.85 212.664 628.175 212.856 627.534C213.048 626.896 213.714 626.533 214.364 626.723C220.96 628.706 227.223 632.112 232.476 636.576C232.986 637.009 233.048 637.773 232.614 638.283Z" fill="#FF971D"/>
<path d="M329.391 616.18C327.424 615.489 325.403 615.236 323.45 614.991C322.559 614.88 321.668 614.77 320.784 614.613C308.969 612.57 301.096 609.018 298.621 604.623C296.685 601.137 295.991 599.509 295.391 597.051C295.154 596.076 294.174 595.477 293.197 595.717C292.246 595.949 291.66 596.891 291.854 597.842L269.432 602.406C269.241 601.461 268.355 600.83 267.378 600.972C266.387 601.127 265.71 602.055 265.864 603.047L268.532 619.913C268.88 622.033 269.24 624.076 269.594 626.023C270.354 630.132 271.396 634.35 274.97 636.837C278.338 639.19 282.615 639.061 286.69 638.732L322.482 635.955C325.204 635.736 328.02 635.509 330.617 634.266C333.3 633.001 337.141 628.64 336.953 625.211C336.766 621.696 332.635 617.306 329.391 616.18ZM283.324 628.623C283.125 628.746 282.904 628.805 282.686 628.805C282.281 628.805 281.886 628.602 281.657 628.233C278.713 623.486 276.817 618.045 276.179 612.498C276.102 611.833 276.579 611.232 277.243 611.157C277.915 611.079 278.508 611.558 278.584 612.221C279.183 617.415 280.957 622.51 283.714 626.956C284.066 627.525 283.891 628.271 283.324 628.623ZM326.854 628.942C326.661 629.056 326.449 629.109 326.241 629.109C325.826 629.109 325.422 628.896 325.196 628.512C323.433 625.512 320.362 623.226 316.982 622.396C316.332 622.237 315.935 621.581 316.095 620.932C316.255 620.283 316.915 619.883 317.559 620.045C321.62 621.042 325.164 623.681 327.284 627.285C327.622 627.862 327.431 628.603 326.854 628.942Z" fill="#FF971D"/>
<path d="M346.673 652.178H86.3355C85.333 652.178 84.5195 651.365 84.5195 650.362C84.5195 649.36 85.333 648.546 86.3355 648.546H346.673C347.676 648.546 348.489 649.36 348.489 650.362C348.489 651.365 347.676 652.178 346.673 652.178Z" fill="#FF971D"/>
<path d="M293.583 201.135C302.643 197.406 310.757 191.709 319.612 187.515C335.809 179.845 354.441 177.423 372.06 180.699C370.586 178.892 369.112 177.085 367.638 175.279C365.411 177.59 361.655 177.597 358.612 176.574C355.57 175.551 352.856 173.696 349.8 172.713C341.476 170.036 332.656 174.223 324.918 178.295C308.364 187.007 291.778 196.669 274.855 204.289C280.877 205.75 288.026 203.422 293.583 201.135Z" fill="#1B1B1B"/>
<path d="M380.887 149.019C384.701 146.491 388.017 141.684 386.02 137.567C388.22 142.102 362.766 156.839 359.85 158.845C361.813 166.862 363.539 167.877 367.609 161.153C371.398 154.894 374.826 153.036 380.887 149.019Z" fill="#1B1B1B"/>
<path d="M262.925 200.069L244.199 162.182C241.691 157.104 243.778 150.931 248.85 148.42L356.158 95.3743C361.237 92.8773 367.405 94.9653 369.909 100.037L372.573 105.436C373.018 106.335 372.648 107.424 371.749 107.868C370.847 108.312 369.759 107.942 369.317 107.044L366.653 101.645C365.035 98.3655 361.048 97.0178 357.766 98.6316L250.46 151.676C247.183 153.298 245.834 157.289 247.455 160.573L266.181 198.46C267.8 201.738 271.79 203.088 275.082 201.473L315.784 181.346C316.681 180.902 317.771 181.27 318.217 182.169C318.662 183.068 318.293 184.157 317.394 184.602L276.687 204.732C271.608 207.228 265.43 205.143 262.925 200.069Z" fill="#FF971D"/>
<path d="M370.924 181.762C370.729 181.762 370.532 181.731 370.342 181.666L342.435 172.222L324.883 180.898C323.983 181.34 322.895 180.972 322.45 180.075C322.006 179.175 322.375 178.086 323.273 177.642L341.499 168.633C341.932 168.418 342.43 168.387 342.886 168.54L367.353 176.82L358.519 158.946C358.108 158.115 358.389 157.107 359.171 156.608C363.892 153.602 368.481 150.629 373.073 147.655C375.531 146.063 377.989 144.471 380.468 142.872C383.31 141.037 384.324 137.376 382.822 134.357L372.603 113.693C372.159 112.793 372.528 111.704 373.426 111.26C374.324 110.815 375.414 111.183 375.86 112.083L386.076 132.743C388.4 137.416 386.836 143.084 382.437 145.924C379.958 147.522 377.503 149.112 375.049 150.703C370.895 153.394 366.744 156.082 362.496 158.796L372.551 179.141C372.877 179.799 372.774 180.589 372.29 181.142C371.939 181.543 371.438 181.762 370.924 181.762Z" fill="#FF971D"/>
<path d="M302.872 146.962C302.388 146.084 302.71 144.979 303.589 144.497C319.295 135.869 335.621 127.956 352.113 120.976C353.041 120.586 354.103 121.02 354.495 121.941C354.885 122.865 354.453 123.931 353.53 124.322C337.15 131.254 320.936 139.113 305.337 147.68C304.462 148.162 303.355 147.844 302.872 146.962Z" fill="#FF971D"/>
<path d="M314.86 160.026C314.42 159.126 314.794 158.038 315.695 157.598L349.978 140.857C350.88 140.416 351.967 140.79 352.407 141.691C352.847 142.592 352.473 143.68 351.572 144.12L317.289 160.861C316.388 161.301 315.3 160.927 314.86 160.026Z" fill="#FF971D"/>
<path d="M275.375 165.759C278.628 164.412 280.172 160.683 278.825 157.431C277.478 154.178 273.749 152.634 270.497 153.981C267.244 155.328 265.7 159.057 267.047 162.309C268.394 165.562 272.123 167.106 275.375 165.759Z" fill="#FF971D"/>
<path d="M285.005 185.033C288.525 185.033 291.379 182.179 291.379 178.658C291.379 175.138 288.525 172.284 285.005 172.284C281.485 172.284 278.631 175.138 278.631 178.658C278.631 182.179 281.485 185.033 285.005 185.033Z" fill="#FF971D"/>
<path d="M529.988 442.839C528.986 442.839 528.172 442.025 528.172 441.023V430.85H506.427C505.425 430.85 504.611 430.037 504.611 429.034V394.04C504.611 393.038 505.425 392.224 506.427 392.224C507.43 392.224 508.243 393.038 508.243 394.04V427.218H529.988C530.991 427.218 531.804 428.032 531.804 429.034V441.023C531.804 442.025 530.991 442.839 529.988 442.839Z" fill="#FF971D"/>
<path d="M382.072 492.029C381.069 492.029 380.256 491.215 380.256 490.213V375.701C380.256 374.698 381.069 373.885 382.072 373.885C383.075 373.885 383.888 374.698 383.888 375.701V490.213C383.888 491.215 383.075 492.029 382.072 492.029Z" fill="#FF971D"/>
<path d="M421.77 474.443C421.397 474.099 420.905 473.929 420.389 473.969L352.397 479.636C351.456 479.715 350.732 480.501 350.732 481.446V522.24C350.732 523.185 351.456 523.971 352.397 524.05L420.389 529.716C420.44 529.719 420.491 529.722 420.541 529.722C420.995 529.722 421.433 529.551 421.77 529.241C422.144 528.897 422.357 528.414 422.357 527.905V475.779C422.357 475.271 422.144 474.787 421.77 474.443ZM361.626 494.015C361.626 493.346 362.168 492.804 362.837 492.804H402.037C402.706 492.804 403.247 493.346 403.247 494.015C403.247 494.684 402.706 495.226 402.037 495.226H362.837C362.168 495.226 361.626 494.684 361.626 494.015ZM402.741 510.658H376.928C376.259 510.658 375.717 510.117 375.717 509.448C375.717 508.778 376.258 508.237 376.928 508.237H402.741C403.41 508.237 403.952 508.778 403.952 509.448C403.952 510.117 403.41 510.658 402.741 510.658Z" fill="#FF971D"/>
<path d="M594.656 581.265C594.235 580.354 594.633 579.275 595.543 578.855C621.453 566.888 643.617 546.705 657.951 522.022C658.455 521.154 659.568 520.859 660.433 521.363C661.3 521.867 661.595 522.978 661.091 523.845C646.386 549.167 623.648 569.875 597.066 582.151C596.175 582.567 595.083 582.19 594.656 581.265Z" fill="#FF971D"/>
<path d="M632.685 583.935C632.044 583.935 631.422 583.595 631.092 582.993C630.609 582.115 630.93 581.01 631.81 580.528C642.204 574.82 651.038 566.499 657.358 556.466C657.894 555.618 659.014 555.362 659.864 555.897C660.711 556.432 660.967 557.553 660.432 558.402C653.783 568.955 644.49 577.707 633.557 583.711C633.281 583.863 632.98 583.935 632.685 583.935Z" fill="#FF971D"/>
<path d="M409.793 97.959C409.406 97.959 409.014 97.8348 408.683 97.5795C391.063 83.9546 369.096 76.454 346.824 76.454C346.794 76.454 346.766 76.454 346.735 76.454H346.734C345.731 76.454 344.919 75.6417 344.918 74.6392C344.917 73.6071 345.775 72.8255 346.824 72.8219C369.898 72.8219 392.651 80.592 410.906 94.7065C411.699 95.3201 411.845 96.4598 411.231 97.2544C410.873 97.7165 410.336 97.959 409.793 97.959Z" fill="#FF971D"/>
<path d="M163.247 161.865C163.229 156.807 159.351 152.675 154.602 152.654L59.5465 152.253C59.5335 152.253 59.5217 152.253 59.5098 152.253C57.1771 152.253 54.9887 153.222 53.3453 154.986C51.7303 156.72 50.8352 159.019 50.8246 161.463L50.7501 179.186C50.7276 184.285 54.6056 188.449 59.394 188.471L119.812 188.726L146.523 205.357C146.816 205.54 147.149 205.632 147.483 205.632C147.785 205.632 148.087 205.556 148.361 205.405C148.937 205.087 149.296 204.481 149.299 203.824L149.363 188.645L154.581 188.668C154.592 188.668 154.604 188.668 154.614 188.668C156.832 188.668 158.942 187.78 160.559 186.165C162.311 184.414 163.311 181.942 163.303 179.383L163.247 161.865ZM123.28 177.923C123.279 177.923 123.276 177.923 123.275 177.923L101.535 177.831C100.866 177.829 100.327 177.284 100.329 176.615C100.331 175.949 100.873 175.41 101.54 175.41C101.541 175.41 101.543 175.41 101.544 175.41L123.285 175.502C123.954 175.504 124.493 176.049 124.491 176.717C124.488 177.384 123.947 177.923 123.28 177.923ZM143.33 165.835C143.328 165.835 143.326 165.835 143.325 165.835L80.6862 165.57C80.017 165.568 79.4779 165.023 79.4802 164.355C79.4826 163.688 80.0241 163.149 80.6909 163.149C80.692 163.149 80.6943 163.149 80.6956 163.149L143.334 163.414C144.003 163.416 144.542 163.961 144.54 164.629C144.538 165.296 143.996 165.835 143.33 165.835Z" fill="#FF971D"/>
</svg>
